<svg width="191" height="180" viewBox="0 0 191 180" fill="none" xmlns="http://www.w3.org/2000/svg">
<path d="M174.546 9.6158C152.156 -3.73902 123.183 -2.99758 101.193 10.6849C88.8383 18.3722 79.2881 29.4594 68.4582 39.004C58.9684 47.3673 47.9331 53.333 38.1322 61.2242C2.58854 89.8425 5.97995 167.031 56.0293 177.284C77.7246 181.728 107.376 183.154 120.128 161.941C132.286 141.715 136.364 121.025 160.119 110.282C168.398 106.537 182.235 106.726 187.843 98.5218C194.921 88.1683 186.139 77.4129 181.455 68.3904C175.418 56.7628 174.152 45.2991 178.4 32.8263C182.016 22.2053 184.563 17.4342 174.546 9.6158Z" fill="url(#paint0_linear_867_1767)"/>
<path opacity="0.1" d="M144.356 108.027C129.834 108.027 117.422 117.067 112.426 129.831C112.392 129.819 112.36 129.8 112.324 129.79L93.1345 124.167C94.2843 120.736 94.9084 117.064 94.9084 113.245C94.9084 104.381 91.551 96.3017 86.0402 90.2123L106.98 75.9567C107.005 75.9395 107.024 75.9177 107.048 75.8994C113.329 83.7896 123.009 88.8475 133.871 88.8475C152.804 88.8475 168.153 73.4828 168.153 54.5293C168.153 35.5759 152.804 20.2112 133.871 20.2112C114.938 20.2112 99.5897 35.5759 99.5897 54.5293C99.5897 61.3507 101.578 67.707 105.006 73.0497H105.005L83.8239 87.4697C83.7167 87.5425 83.6219 87.6265 83.5366 87.7172C77.4649 82.2529 69.4343 78.9264 60.6269 78.9264C41.6937 78.9264 26.3455 94.2911 26.3455 113.245C26.3455 132.198 41.6937 147.563 60.6269 147.563C74.5055 147.563 86.4574 139.306 91.8499 127.433C91.9128 127.459 91.9728 127.49 92.0395 127.51L111.319 133.158C110.509 136.083 110.074 139.163 110.074 142.346C110.074 161.299 125.423 176.664 144.356 176.664C163.289 176.664 178.637 161.299 178.637 142.346C178.637 123.392 163.289 108.027 144.356 108.027Z" fill="#3A85F4"/>
<path d="M133.872 80.41C152.805 80.41 168.154 65.0452 168.154 46.0918C168.154 27.1384 152.805 11.7737 133.872 11.7737C114.939 11.7737 99.5908 27.1384 99.5908 46.0918C99.5908 65.0452 114.939 80.41 133.872 80.41Z" fill="#D4EBFF"/>
<path d="M60.6269 139.125C79.56 139.125 94.9084 123.76 94.9084 104.807C94.9084 85.8535 79.56 70.4888 60.6269 70.4888C41.6938 70.4888 26.3455 85.8535 26.3455 104.807C26.3455 123.76 41.6938 139.125 60.6269 139.125Z" fill="#D4EBFF"/>
<path d="M144.357 168.226C163.29 168.226 178.639 152.861 178.639 133.908C178.639 114.955 163.29 99.5898 144.357 99.5898C125.424 99.5898 110.076 114.955 110.076 133.908C110.076 152.861 125.424 168.226 144.357 168.226Z" fill="#D4EBFF"/>
<path d="M67.0522 49.7825C66.0822 49.7825 65.2963 48.9953 65.2963 48.0247C65.2963 46.8613 64.3509 45.9153 63.1888 45.9153C62.2188 45.9153 61.4329 45.1281 61.4329 44.1575C61.4329 43.1868 62.2188 42.3997 63.1888 42.3997C64.3509 42.3997 65.2963 41.4536 65.2963 40.2903C65.2963 39.3196 66.0822 38.5325 67.0522 38.5325C68.0222 38.5325 68.8081 39.3196 68.8081 40.2903C68.8081 41.4536 69.7532 42.3997 70.9149 42.3997C71.8849 42.3997 72.6708 43.1868 72.6708 44.1575C72.6708 45.1281 71.8849 45.9153 70.9149 45.9153C69.7532 45.9153 68.8081 46.8613 68.8081 48.0247C68.8081 48.9953 68.0222 49.7825 67.0522 49.7825Z" fill="#81C2FF"/>
<path d="M171.941 86.1109C170.972 86.1109 170.186 85.3237 170.186 84.353C170.186 83.1897 169.241 82.2437 168.078 82.2437C167.108 82.2437 166.323 81.4565 166.323 80.4858C166.323 79.5152 167.108 78.728 168.078 78.728C169.241 78.728 170.186 77.782 170.186 76.6187C170.186 75.648 170.972 74.8608 171.941 74.8608C172.911 74.8608 173.697 75.648 173.697 76.6187C173.697 77.782 174.642 78.728 175.805 78.728C176.775 78.728 177.56 79.5152 177.56 80.4858C177.56 81.4565 176.775 82.2437 175.805 82.2437C174.642 82.2437 173.697 83.1897 173.697 84.353C173.697 85.3237 172.911 86.1109 171.941 86.1109Z" fill="#D4EBFF"/>
<path d="M78.6136 158.431C77.6436 158.431 76.8577 157.644 76.8577 156.673C76.8577 155.51 75.9126 154.563 74.7506 154.563C73.7806 154.563 72.9946 153.776 72.9946 152.806C72.9946 151.835 73.7806 151.048 74.7506 151.048C75.9126 151.048 76.8577 150.102 76.8577 148.938C76.8577 147.968 77.6436 147.181 78.6136 147.181C79.5836 147.181 80.3696 147.968 80.3696 148.938C80.3696 150.102 81.3146 151.048 82.4767 151.048C83.4467 151.048 84.2326 151.835 84.2326 152.806C84.2326 153.776 83.4467 154.563 82.4767 154.563C81.3146 154.563 80.3696 155.51 80.3696 156.673C80.3696 157.644 79.5836 158.431 78.6136 158.431Z" fill="#81C2FF"/>
<path d="M80.0418 59.9777C79.5926 59.9777 79.1427 59.8061 78.8003 59.463L74.9373 55.5958C74.2514 54.9092 74.2514 53.7962 74.9373 53.1099L78.8003 49.2427C79.4855 48.5565 80.598 48.5565 81.2832 49.2427L85.1463 53.1099C85.8321 53.7965 85.8321 54.9096 85.1463 55.5958L81.2832 59.463C80.9408 59.8058 80.4913 59.9777 80.0418 59.9777ZM78.6619 54.3527L80.0418 55.734L81.4216 54.3527L80.0418 52.9714L78.6619 54.3527Z" fill="#D4EBFF"/>
<path d="M98.7698 163.097C98.3206 163.097 97.8707 162.925 97.5283 162.582L93.6653 158.715C92.9794 158.028 92.9794 156.915 93.6653 156.229L97.5283 152.362C98.2135 151.676 99.3261 151.676 100.011 152.362L103.874 156.229C104.56 156.916 104.56 158.029 103.874 158.715L100.011 162.582C99.6688 162.925 99.2193 163.097 98.7698 163.097ZM97.3903 157.472L98.7701 158.853L100.15 157.472L98.7701 156.091L97.3903 157.472Z" fill="#9ED0FF"/>
<path d="M6.1189 127.25C5.66973 127.25 5.21986 127.078 4.87746 126.735L1.0144 122.868C0.328533 122.181 0.328533 121.068 1.0144 120.382L4.87746 116.515C5.56262 115.828 6.67518 115.828 7.36035 116.515L11.2234 120.382C11.9093 121.068 11.9093 122.182 11.2234 122.868L7.36035 126.735C7.01794 127.078 6.56842 127.25 6.1189 127.25ZM4.73944 121.625L6.11926 123.006L7.49907 121.625L6.11926 120.243L4.73944 121.625Z" fill="#81C2FF"/>
<path d="M85 80L105.5 66" stroke="#5A5A5A" stroke-width="3"/>
<path fill-rule="evenodd" clip-rule="evenodd" d="M60.6271 140.884C75.2702 140.884 87.9006 132.095 93.5333 119.51C93.7789 119.009 94.379 117.651 94.8151 116.223C96.0141 112.633 96.6652 108.795 96.6652 104.808C96.6652 95.5907 93.193 87.1715 87.4911 80.7878C87.2063 80.4641 85.7006 78.9565 84.9833 78.2432C78.5647 72.3405 70.0094 68.7313 60.6267 68.7313C40.7555 68.7313 24.5894 84.9148 24.5894 104.807C24.5897 124.7 40.7559 140.884 60.6271 140.884ZM103.565 65.5929C104.156 66.4314 105.391 68.177 105.611 68.4518C112.217 76.8015 122.43 82.1677 133.872 82.1677C142.449 82.1677 150.759 79.0996 157.271 73.5284C163.709 68.0198 168.021 60.4046 169.411 52.0859C169.571 51.1282 168.925 50.2222 167.969 50.0619C167.015 49.9034 166.107 50.5481 165.947 51.5058C164.693 59.0113 160.801 65.883 154.989 70.8562C149.113 75.8835 141.613 78.6524 133.872 78.6524C115.937 78.6524 101.346 64.0461 101.346 46.0921C101.346 28.1381 115.937 13.5317 133.872 13.5317C149.627 13.5317 163.088 24.7786 165.879 40.2741C166.051 41.2296 166.963 41.8635 167.919 41.6919C168.873 41.5197 169.508 40.6056 169.336 39.65C166.242 22.479 151.328 10.0161 133.871 10.0161C114 10.0161 97.8336 26.1996 97.8336 46.0921C97.8336 53.271 99.94 59.9665 103.565 65.5929ZM108.319 133.908C108.319 130.6 108.765 127.351 109.632 124.227C109.739 123.608 110.417 121.744 110.742 120.889C111.78 118.207 113.139 115.642 114.815 113.246C115.371 112.45 116.466 112.257 117.261 112.813C118.055 113.37 118.248 114.466 117.692 115.261C113.858 120.745 111.831 127.193 111.831 133.908C111.831 151.862 126.422 166.469 144.357 166.469C162.291 166.469 176.882 151.862 176.882 133.908C176.882 115.954 162.291 101.348 144.357 101.348C137.594 101.348 131.109 103.406 125.605 107.301C124.814 107.861 123.718 107.673 123.158 106.88C122.598 106.087 122.786 104.99 123.578 104.43C129.678 100.114 136.863 97.8323 144.356 97.8323C164.228 97.8323 180.394 114.016 180.394 133.908C180.394 153.801 164.228 169.984 144.356 169.984C124.485 169.984 108.319 153.801 108.319 133.908ZM60.6271 72.247C78.5615 72.247 93.1526 86.8533 93.1526 104.807C93.1526 122.761 78.5615 137.368 60.6271 137.368C42.6927 137.368 28.1016 122.761 28.1016 104.807C28.1016 86.8537 42.6927 72.247 60.6271 72.247Z" fill="#3A85F4"/>
<defs>
<linearGradient id="paint0_linear_867_1767" x1="14.4846" y1="89.9999" x2="190.5" y2="89.9999" gradientUnits="userSpaceOnUse">
<stop stop-color="#6EBDFE" stop-opacity="0"/>
<stop offset="1" stop-color="#6EBDFE"/>
</linearGradient>
</defs>
</svg>
