<svg width="174" height="164" viewBox="0 0 174 164" fill="none" xmlns="http://www.w3.org/2000/svg">
<path d="M109.222 20.5674C108.781 20.5674 108.341 20.5713 107.902 20.5793C96.967 20.7773 86.4292 16.8117 77.9291 9.94666C70.3917 3.8593 60.773 0.235039 50.3032 0.30319C26.4121 0.458782 6.72196 20.5796 7.11738 44.4089C7.22373 50.8255 8.72742 56.9026 11.3378 62.3512C15.7854 71.6349 14.8263 82.6794 8.64621 90.9174C6.09387 94.3198 4.00494 98.1553 2.50351 102.363C-5.49706 124.788 6.32171 149.715 28.7846 157.744C51.6596 165.92 76.7451 153.834 84.5978 130.979C85.1795 129.286 85.65 127.582 86.0135 125.875C88.3216 115.032 97.8039 107.27 108.916 107.316C109.018 107.316 109.12 107.317 109.222 107.317C140.028 107.317 165 87.8971 165 63.9421C165 39.9871 140.027 20.5674 109.222 20.5674Z" fill="url(#paint0_linear_867_1703)"/>
<path d="M63.7285 20.6731H62.7617V19.7087C62.7617 18.8211 62.0402 18.1013 61.1504 18.1013C60.2606 18.1013 59.5391 18.8211 59.5391 19.7087V20.6731H58.5723C57.6825 20.6731 56.9609 21.3929 56.9609 22.2804C56.9609 23.168 57.6825 23.8878 58.5723 23.8878H59.5391V24.8522C59.5391 25.7398 60.2606 26.4595 61.1504 26.4595C62.0402 26.4595 62.7617 25.7398 62.7617 24.8522V23.8878H63.7285C64.6183 23.8878 65.3398 23.168 65.3398 22.2804C65.3398 21.3929 64.6186 20.6731 63.7285 20.6731Z" fill="#C4E2FF"/>
<path d="M105.154 128.915H104.188V127.95C104.188 127.063 103.466 126.343 102.576 126.343C101.686 126.343 100.965 127.063 100.965 127.95V128.915H99.998C99.1083 128.915 98.3867 129.634 98.3867 130.522C98.3867 131.409 99.1083 132.129 99.998 132.129H100.965V133.094C100.965 133.981 101.686 134.701 102.576 134.701C103.466 134.701 104.188 133.981 104.188 133.094V132.129H105.154C106.044 132.129 106.766 131.409 106.766 130.522C106.766 129.634 106.044 128.915 105.154 128.915Z" fill="#81C2FF"/>
<path d="M30.7676 128.915H29.8008V127.95C29.8008 127.063 29.0792 126.343 28.1894 126.343C27.2997 126.343 26.5781 127.063 26.5781 127.95V128.915H25.6113C24.7216 128.915 24 129.634 24 130.522C24 131.409 24.7216 132.129 25.6113 132.129H26.5781V133.094C26.5781 133.981 27.2997 134.701 28.1894 134.701C29.0792 134.701 29.8008 133.981 29.8008 133.094V132.129H30.7676C31.6573 132.129 32.3789 131.409 32.3789 130.522C32.3789 129.634 31.6573 128.915 30.7676 128.915Z" fill="#81C2FF"/>
<path d="M118.6 139.312C118.187 139.312 117.775 139.155 117.46 138.841L116.021 137.406L114.583 138.841C113.953 139.469 112.933 139.469 112.304 138.841C111.675 138.214 111.675 137.196 112.304 136.568L114.882 133.997C115.512 133.369 116.532 133.369 117.161 133.997L119.739 136.568C120.368 137.196 120.368 138.214 119.739 138.841C119.425 139.155 119.012 139.312 118.6 139.312Z" fill="#81C2FF"/>
<path d="M48.6405 18.2791C48.228 18.2791 47.8159 18.1222 47.501 17.8084L46.0624 16.3734L44.6238 17.8084C43.9944 18.4359 42.9745 18.4359 42.3451 17.8084C41.7157 17.1806 41.7157 16.1628 42.3451 15.5353L44.9232 12.9636C45.5526 12.336 46.5726 12.336 47.2019 12.9636L49.7801 15.5353C50.4095 16.1631 50.4095 17.1809 49.7801 17.8084C49.4655 18.1222 49.053 18.2791 48.6405 18.2791Z" fill="#BCDFFF"/>
<path d="M68.9961 110.682H93.9266V142.527H68.9961V110.682Z" fill="white"/>
<path opacity="0.1" d="M144.71 15.8066C137.642 15.8066 131.806 21.0521 130.891 27.8528H90.8269C89.048 27.8528 87.6043 29.293 87.6043 31.0675V44.9753H78.9221C78.5409 43.6238 77.2986 42.6308 75.8223 42.6308H33.3789C31.415 37.3194 26.2962 33.5319 20.2895 33.5319C12.5863 33.5319 6.3418 39.761 6.3418 47.4451C6.3418 53.2371 9.89026 58.2006 14.9363 60.2949V92.2597C14.9363 94.0342 16.3768 95.4744 18.159 95.4744H18.2833V117.288C18.2833 119.951 20.4477 122.11 23.1173 122.11H59.0438V125.704C59.0438 127.48 60.4866 128.919 62.2665 128.919H68.9967V146.921H56.3146C54.4999 146.921 53.0287 148.389 53.0287 150.199C53.0287 152.009 54.4999 153.477 56.3146 153.477H106.609C108.424 153.477 109.895 152.009 109.895 150.199C109.895 148.388 108.424 146.921 106.609 146.921H93.9272V128.919H100.657C102.437 128.919 103.88 127.48 103.88 125.704V122.11H139.806C142.476 122.11 144.64 119.951 144.64 117.288V67.9372H146.663C148.442 67.9372 149.885 66.4971 149.885 64.7225V42.6398C155.025 40.5891 158.657 35.5793 158.657 29.7202C158.657 22.0358 152.413 15.8066 144.71 15.8066Z" fill="#3A85F4"/>
<path d="M100.657 120.239H62.2676C60.4877 120.239 59.0449 118.8 59.0449 117.025V109.744H103.88V117.025C103.88 118.8 102.437 120.239 100.657 120.239Z" fill="white"/>
<path d="M139.806 113.432H23.1172C20.4475 113.432 18.2832 111.273 18.2832 108.61V41.1189C18.2832 38.4559 20.4475 36.2969 23.1172 36.2969H139.806C142.475 36.2969 144.64 38.4559 144.64 41.1189V108.61C144.64 111.273 142.475 113.432 139.806 113.432Z" fill="#81C2FF"/>
<path d="M144.639 41.117V100.444H18.2852V41.117C18.2852 38.4552 20.4476 36.2949 23.1191 36.2949H139.805C142.477 36.2949 144.639 38.4552 144.639 41.117Z" fill="white"/>
<path d="M106.61 144.797H56.3151C54.5004 144.797 53.0293 143.33 53.0293 141.52C53.0293 139.709 54.5004 138.242 56.3151 138.242H106.61C108.424 138.242 109.895 139.709 109.895 141.52C109.896 143.33 108.425 144.797 106.61 144.797Z" fill="white"/>
<path d="M79.0458 37.1664V83.5803C79.0458 85.3548 77.6021 86.795 75.8232 86.795H60.7572L58.047 94.7482C57.1898 97.2653 53.6255 97.2653 52.7683 94.7482L50.0548 86.795H18.1602C16.378 86.795 14.9375 85.3548 14.9375 83.5803V37.1664C14.9375 35.3918 16.378 33.9517 18.1602 33.9517H75.8232C77.6021 33.9517 79.0458 35.3918 79.0458 37.1664Z" fill="white"/>
<path d="M26.4492 77.9186H69.841C70.7311 77.9186 71.4523 77.1988 71.4523 76.3112C71.4523 75.4236 70.7311 74.7039 69.841 74.7039H26.4492C25.5591 74.7039 24.8379 75.4236 24.8379 76.3112C24.8379 77.1988 25.5591 77.9186 26.4492 77.9186Z" fill="#5A5A5A"/>
<path d="M26.4492 61.0685H69.841C70.7311 61.0685 71.4523 60.3487 71.4523 59.4611C71.4523 58.5735 70.7311 57.8538 69.841 57.8538H26.4492C25.5591 57.8538 24.8379 58.5735 24.8379 59.4611C24.8379 60.3487 25.5591 61.0685 26.4492 61.0685Z" fill="#5A5A5A"/>
<path d="M26.4492 66.6952H69.841C70.7311 66.6952 71.4523 65.9754 71.4523 65.0878C71.4523 64.2002 70.7311 63.4805 69.841 63.4805H26.4492C25.5591 63.4805 24.8379 64.2002 24.8379 65.0878C24.8379 65.9754 25.5591 66.6952 26.4492 66.6952Z" fill="#5A5A5A"/>
<path d="M53.8809 49.8155H69.8395C70.7295 49.8155 71.4508 49.0958 71.4508 48.2082C71.4508 47.3206 70.7295 46.6008 69.8395 46.6008H53.8809C52.9908 46.6008 52.2695 47.3206 52.2695 48.2082C52.2695 49.0958 52.9908 49.8155 53.8809 49.8155Z" fill="#5A5A5A"/>
<path d="M71.4517 53.8344C71.4517 54.7217 70.7298 55.4418 69.8403 55.4418H26.4473C25.5578 55.4418 24.8359 54.7217 24.8359 53.8344C24.8359 52.9471 25.5578 52.2271 26.4473 52.2271H69.8403C70.7298 52.2271 71.4517 52.9471 71.4517 53.8344Z" fill="#5A5A5A"/>
<path d="M149.885 22.3883V56.043C149.885 57.8176 148.441 59.2577 146.662 59.2577H113.33L110.617 67.2109C109.759 69.7248 106.195 69.7248 105.338 67.2109L102.628 59.2577H90.8262C89.0473 59.2577 87.6035 57.8176 87.6035 56.043V22.3883C87.6035 20.6138 89.0473 19.1736 90.8262 19.1736H146.662C148.441 19.1736 149.885 20.6138 149.885 22.3883Z" fill="white"/>
<path d="M20.2895 52.6788C27.9925 52.6788 34.2371 46.4496 34.2371 38.7655C34.2371 31.0815 27.9925 24.8523 20.2895 24.8523C12.5864 24.8523 6.3418 31.0815 6.3418 38.7655C6.3418 46.4496 12.5864 52.6788 20.2895 52.6788Z" fill="#D4EBFF"/>
<path d="M134.961 79.3107C135.851 79.3107 136.572 78.591 136.572 77.7033C136.572 76.8156 135.851 76.0959 134.961 76.0959C134.071 76.0959 133.35 76.8156 133.35 77.7033C133.35 78.591 134.071 79.3107 134.961 79.3107Z" fill="#5A5A5A"/>
<path d="M129.725 79.3107C130.615 79.3107 131.336 78.591 131.336 77.7033C131.336 76.8156 130.615 76.0959 129.725 76.0959C128.835 76.0959 128.113 76.8156 128.113 77.7033C128.113 78.591 128.835 79.3107 129.725 79.3107Z" fill="#5A5A5A"/>
<path d="M119.502 85.1131H135.461C136.351 85.1131 137.072 84.3934 137.072 83.5058C137.072 82.6182 136.351 81.8984 135.461 81.8984H119.502C118.612 81.8984 117.891 82.6182 117.891 83.5058C117.891 84.3934 118.612 85.1131 119.502 85.1131Z" fill="#5A5A5A"/>
<path d="M110.801 90.7399H135.461C136.351 90.7399 137.072 90.0201 137.072 89.1325C137.072 88.2449 136.351 87.5251 135.461 87.5251H110.801C109.911 87.5251 109.189 88.2449 109.189 89.1325C109.189 90.0201 109.911 90.7399 110.801 90.7399Z" fill="#5A5A5A"/>
<path d="M144.709 34.9534C152.412 34.9534 158.657 28.7243 158.657 21.0402C158.657 13.3561 152.412 7.12695 144.709 7.12695C137.006 7.12695 130.762 13.3561 130.762 21.0402C130.762 28.7243 137.006 34.9534 144.709 34.9534Z" fill="#D5EBFF"/>
<path d="M160.268 21.0404C160.268 12.4822 153.289 5.51978 144.709 5.51978C137.328 5.51978 131.135 10.6755 129.548 17.5653H90.8273C88.1618 17.5653 85.9933 19.7284 85.9933 22.3873V34.6884H79.9595C79.1129 33.2874 77.577 32.3452 75.821 32.3452H34.4492C31.9961 26.9831 26.574 23.245 20.2895 23.245C11.7101 23.245 4.73047 30.2074 4.73047 38.7656C4.73047 44.8269 8.2335 50.0839 13.3243 52.638V83.5805C13.3243 85.7222 14.732 87.5397 16.672 88.1669V108.609C16.672 112.154 19.5634 115.038 23.1173 115.038H57.4325V117.024C57.4325 119.683 59.601 121.846 62.2665 121.846H67.3853V136.634H56.3146C53.6143 136.634 51.4174 138.826 51.4174 141.519C51.4174 144.213 53.6143 146.404 56.3146 146.404H106.609C109.309 146.404 111.506 144.213 111.506 141.519C111.506 138.826 109.31 136.634 106.609 136.634H95.5382V121.846H100.657C103.322 121.846 105.491 119.683 105.491 117.024V115.038H139.806C143.36 115.038 146.251 112.154 146.251 108.609V60.8654H146.663C149.328 60.8654 151.497 58.7022 151.497 56.0434V35.0038C156.685 32.4841 160.268 27.1724 160.268 21.0404ZM7.95345 38.7656C7.95345 31.9803 13.4874 26.4597 20.2898 26.4597C27.0922 26.4597 32.6261 31.98 32.6261 38.7656C32.6261 45.5512 27.0922 51.0715 20.2898 51.0715C13.4874 51.0715 7.95345 45.5512 7.95345 38.7656ZM16.547 53.8294C17.7465 54.1261 18.9994 54.2862 20.2895 54.2862C28.8688 54.2862 35.8484 47.3238 35.8484 38.7656C35.8484 37.6668 35.7315 36.5947 35.513 35.5599H75.821C76.7095 35.5599 77.4323 36.281 77.4323 37.1673V83.5805C77.4323 84.4668 76.7095 85.1879 75.821 85.1879H60.7573C60.0673 85.1879 59.4541 85.626 59.2317 86.2777L56.5205 94.2312C56.2688 94.9699 55.604 95.0274 55.4061 95.0274C55.2085 95.0274 54.5437 94.9699 54.2917 94.2312L51.5805 86.2777C51.3584 85.626 50.7448 85.1879 50.0549 85.1879H18.1586C17.2701 85.1879 16.5473 84.4668 16.5473 83.5805L16.547 53.8294ZM93.9268 139.849H106.609C107.533 139.849 108.284 140.598 108.284 141.519C108.284 142.44 107.533 143.19 106.609 143.19H56.3146C55.3913 143.19 54.6401 142.44 54.6401 141.519C54.6401 140.598 55.3913 139.849 56.3146 139.849H84.0655C84.9553 139.849 85.6768 139.129 85.6768 138.242C85.6768 137.354 84.9553 136.634 84.0655 136.634H70.608V121.847H92.3158V138.242C92.3155 139.129 93.0371 139.849 93.9268 139.849ZM102.268 117.025C102.268 117.911 101.545 118.632 100.657 118.632H62.2668C61.3783 118.632 60.6555 117.911 60.6555 117.025V115.038H102.268V117.025ZM148.274 56.0434C148.274 56.9297 147.552 57.6507 146.663 57.6507H113.329C112.64 57.6507 112.026 58.0889 111.804 58.7405L109.093 66.694C108.841 67.4327 108.176 67.4903 107.978 67.4903C107.78 67.4903 107.116 67.4327 106.864 66.694L104.153 58.7405C103.931 58.0889 103.317 57.6507 102.627 57.6507H90.8273C89.9388 57.6507 89.216 56.9297 89.216 56.0434V36.6111C89.216 35.7235 88.4944 35.0038 87.6046 35.0038C86.7148 35.0038 85.9933 35.7235 85.9933 36.6111V56.0434C85.9933 58.7022 88.1618 60.8654 90.8273 60.8654H101.473L103.813 67.7291C104.429 69.5371 106.064 70.705 107.978 70.705C109.892 70.705 111.527 69.5371 112.144 67.7291L114.483 60.8654H143.029V108.609C143.029 110.382 141.583 111.824 139.806 111.824H23.1173C21.3404 111.824 19.8947 110.382 19.8947 108.609V88.4029H48.9012L51.2408 95.2666C51.8573 97.0746 53.4922 98.2425 55.4061 98.2425C57.3204 98.2425 58.9552 97.0746 59.5717 95.2666L61.9114 88.4029H75.821C78.4864 88.4029 80.655 86.2397 80.655 83.5808V37.9031H87.604C88.2144 37.9031 88.7725 37.5582 89.0458 37.0136C89.1576 36.7905 89.216 36.5446 89.216 36.2948V22.3877C89.216 21.5014 89.9388 20.7803 90.8273 20.7803H129.157C129.156 20.8671 129.15 20.9533 129.15 21.0407C129.15 29.5989 136.13 36.5613 144.709 36.5613C145.936 36.5613 147.129 36.4144 148.274 36.1453V56.0434ZM144.71 33.3463C137.908 33.3463 132.373 27.826 132.373 21.0404C132.373 14.2548 137.907 8.73448 144.71 8.73448C151.512 8.73448 157.046 14.2548 157.046 21.0404C157.046 27.826 151.512 33.3463 144.71 33.3463Z" fill="#3A85F4"/>
<path d="M140.415 43.8087H97.0234C96.1333 43.8087 95.4121 43.0889 95.4121 42.2013C95.4121 41.3138 96.1333 40.594 97.0234 40.594H140.415C141.305 40.594 142.027 41.3138 142.027 42.2013C142.027 43.0889 141.305 43.8087 140.415 43.8087Z" fill="#5A5A5A"/>
<path d="M140.415 49.4354H97.0234C96.1333 49.4354 95.4121 48.7156 95.4121 47.8281C95.4121 46.9405 96.1333 46.2207 97.0234 46.2207H140.415C141.305 46.2207 142.027 46.9405 142.027 47.8281C142.027 48.7156 141.305 49.4354 140.415 49.4354Z" fill="#5A5A5A"/>
<path d="M142.028 36.5749C142.028 37.4621 141.306 38.1822 140.417 38.1822H97.0234C96.134 38.1822 95.4121 37.4621 95.4121 36.5749C95.4121 35.6876 96.134 34.9675 97.0234 34.9675H140.417C141.306 34.9675 142.028 35.6876 142.028 36.5749Z" fill="#5A5A5A"/>
<path d="M112.984 32.5558H97.0254C96.1353 32.5558 95.4141 31.836 95.4141 30.9484C95.4141 30.0608 96.1353 29.3411 97.0254 29.3411H112.984C113.874 29.3411 114.595 30.0608 114.595 30.9484C114.595 31.836 113.874 32.5558 112.984 32.5558Z" fill="#5A5A5A"/>
<path d="M141.507 135.029L145.015 131.522L155.66 142.166L152.152 145.674L141.507 135.029Z" fill="white"/>
<path d="M144.908 134.91C136.923 142.895 123.93 142.895 115.944 134.91C107.959 126.924 107.959 113.931 115.944 105.946C123.929 97.9605 136.923 97.9605 144.908 105.946C152.893 113.931 152.893 126.924 144.908 134.91Z" fill="#81C2FF"/>
<path d="M130.417 135.831C138.924 135.831 145.82 128.935 145.82 120.428C145.82 111.921 138.924 105.025 130.417 105.025C121.911 105.025 115.014 111.921 115.014 120.428C115.014 128.935 121.911 135.831 130.417 135.831Z" fill="white" fill-opacity="0.86"/>
<path d="M139.958 108.324L118.324 129.959C117.468 128.875 116.781 127.702 116.26 126.475L136.475 106.261C137.702 106.781 138.875 107.469 139.958 108.324Z" fill="white"/>
<path d="M145.691 118.385L128.384 135.692C125.274 135.28 122.265 133.919 119.832 131.611L141.61 109.833C143.919 112.265 145.28 115.274 145.691 118.385Z" fill="white"/>
<path d="M172.421 159.073L169.072 162.422C168.411 163.083 167.34 163.083 166.679 162.422L150.81 146.553C150.149 145.892 150.149 144.821 150.81 144.16L154.159 140.811C154.82 140.15 155.891 140.15 156.551 140.811L172.421 156.68C173.082 157.341 173.082 158.412 172.421 159.073Z" fill="white"/>
<path d="M164.034 159.776L166.68 162.422C167.341 163.083 168.412 163.083 169.072 162.422L172.422 159.073C173.082 158.412 173.082 157.341 172.422 156.68L169.776 154.034L164.034 159.776Z" fill="#81C2FF"/>
<path d="M153.124 148.881L158.865 143.14L162.654 146.929L156.913 152.67L153.124 148.881Z" fill="#81C2FF"/>
<path d="M129.245 126.029C128.716 126.029 128.288 125.601 128.288 125.072V123.921C128.288 123.178 128.483 122.444 128.851 121.799C129.415 120.812 130.366 120.079 131.46 119.79C133.131 119.348 134.298 117.831 134.298 116.1C134.298 115.061 133.888 114.089 133.143 113.365C132.398 112.64 131.415 112.258 130.373 112.286C128.374 112.341 126.711 114.013 126.667 116.013C126.658 116.431 126.715 116.842 126.837 117.235C126.994 117.74 126.712 118.276 126.208 118.433C125.703 118.59 125.167 118.308 125.01 117.803C124.826 117.212 124.74 116.595 124.753 115.971C124.821 112.916 127.267 110.457 130.32 110.372C131.885 110.33 133.359 110.904 134.477 111.992C135.596 113.081 136.212 114.54 136.212 116.1C136.212 118.699 134.459 120.977 131.949 121.64C131.348 121.799 130.824 122.203 130.513 122.748C130.309 123.105 130.202 123.51 130.202 123.92V125.072C130.202 125.601 129.773 126.029 129.245 126.029Z" fill="#5A5A5A"/>
<path d="M129.245 129.703C128.716 129.703 128.288 129.274 128.288 128.746V128.726C128.288 128.197 128.716 127.769 129.245 127.769C129.773 127.769 130.202 128.197 130.202 128.726V128.746C130.202 129.275 129.773 129.703 129.245 129.703Z" fill="#5A5A5A"/>
<path fill-rule="evenodd" clip-rule="evenodd" d="M173.099 156.004L157.731 140.636C156.756 139.661 156.049 139.406 155.817 139.4C155.666 139.374 155.513 139.358 155.357 139.358C155.024 139.358 154.702 139.421 154.401 139.538L147.822 132.959C153.862 124.585 153.118 112.8 145.587 105.269C137.228 96.9104 123.627 96.9104 115.27 105.269C111.227 109.312 109 114.695 109 120.427C109 126.16 111.227 131.543 115.27 135.586C119.449 139.765 124.938 141.855 130.428 141.855C134.831 141.855 139.233 140.509 142.959 137.821L149.538 144.4C149.422 144.701 149.359 145.024 149.359 145.356C149.359 146.064 149.634 146.729 150.135 147.229L155.817 152.912L166.004 163.099C166.504 163.599 167.17 163.875 167.877 163.875C168.585 163.875 169.25 163.599 169.75 163.099L173.099 159.75C174.132 158.717 174.132 157.037 173.099 156.004ZM110.914 120.427C110.914 125.649 112.941 130.551 116.623 134.233C124.235 141.845 136.621 141.845 144.233 134.233C151.845 126.621 151.845 114.235 144.233 106.623C140.427 102.816 135.427 100.913 130.428 100.913C125.428 100.913 120.429 102.816 116.623 106.622C112.941 110.304 110.914 115.206 110.914 120.427ZM146.625 134.47C146.294 134.851 145.949 135.224 145.586 135.586C145.224 135.948 144.851 136.294 144.47 136.625L150.731 142.887L152.887 140.731L146.625 134.47ZM168.396 161.746L171.746 158.396C172.032 158.11 172.032 157.644 171.746 157.358L155.876 141.488C155.737 141.349 155.553 141.273 155.356 141.273C155.16 141.273 154.976 141.349 154.837 141.488L151.488 144.837C151.349 144.976 151.272 145.16 151.272 145.357C151.272 145.553 151.349 145.737 151.488 145.876L167.357 161.746C167.635 162.023 168.119 162.023 168.396 161.746Z" fill="#3A85F4"/>
<ellipse cx="145.034" cy="19.9376" rx="4.93234" ry="4.93762" fill="#3A85F4"/>
<path fill-rule="evenodd" clip-rule="evenodd" d="M137 32.0182C137.212 29.7121 138.244 26.8908 141.268 25.7729C142.394 26.6135 145.458 27.7902 148.711 25.7729C150.114 26.2385 152.553 28.0003 153.02 31.6202C150.696 33.3 147.844 34.2928 144.761 34.3016H144.679C141.847 34.2935 139.211 33.4557 137 32.0182Z" fill="#3A85F4"/>
<ellipse cx="20.0339" cy="36.9376" rx="4.93234" ry="4.93762" fill="#3A85F4"/>
<path fill-rule="evenodd" clip-rule="evenodd" d="M12 49.0182C12.2122 46.7121 13.2437 43.8908 16.2684 42.7729C17.3937 43.6135 20.4577 44.7902 23.7107 42.7729C25.1138 43.2385 27.5527 45.0003 28.0195 48.6202C25.6958 50.3 22.8439 51.2928 19.7607 51.3016H19.6786C16.8475 51.2935 14.2113 50.4557 12 49.0182Z" fill="#3A85F4"/>
<defs>
<linearGradient id="paint0_linear_867_1703" x1="125.424" y1="141.062" x2="6.6574" y2="4.25279" gradientUnits="userSpaceOnUse">
<stop stop-color="#5EB6FE" stop-opacity="0"/>
<stop offset="1" stop-color="#5FB6FE"/>
</linearGradient>
</defs>
</svg>
