<svg width="45" height="45" viewBox="0 0 45 45" fill="none" xmlns="http://www.w3.org/2000/svg">
<path d="M23.6095 3.19099V14.7851C22.0316 14.7851 21.6809 17.7715 23.9602 17.7715C26.326 17.7715 25.8889 14.7851 24.3109 14.7851V3.19099L31.6748 17.2444C31.1137 20.7578 24.3109 30.5952 20.8042 33.7572V27.4332L16.4209 17.2444L23.6095 3.19099Z" fill="#007EEA"/>
<path d="M28.3435 40.9596L26.7655 28.4872C25.0823 32.4222 21.2718 37.0364 19.5769 38.5003V40.9596C5.26985 37.0247 4.3815 23.8613 5.72571 17.7715C7.36393 11.5941 13.265 8.1097 15.5443 6.88002C17.8236 5.65035 20.1029 4.94768 19.7522 2.31265C19.4717 0.204637 17.2976 -0.357499 15.8949 0.204637C1.58789 5.54495 -0.586227 18.5912 0.1151 24.4468C0.1151 32.1762 8.00502 45 23.9602 45C30.9735 45 45 39.9408 45 22.5145C45 7.0557 29.5708 2.07843 25.0122 2.13698V1.78565L24.3109 1.78565V2.31265V2.83966L25.0122 2.83965V2.48832L25.1875 2.48832C33.4281 2.31265 42.7207 11.6231 42.7207 22.5145C42.7207 32.1762 36.4088 39.73 28.3435 40.9596Z" fill="#007EEA"/>
</svg>
